Patient4_TMGait_0pt4_02_left_36_EMG.mot
version=1
nRows=13
nColumns=33
inDegrees=no
endheader
time	1LAddLong	2LGlutMax	3LGlutMed	4LIliopsoas	5LSemiMemb	6LBicFemLong	7LRecFem	8LVastMed	9LVastLat	10LGasMed	11LTibAnt	12lTibPost	13LPeroneusLong	14LSol	15LExtDigLong	16LFlexDigLong	17RAddLong	18RGlutMax	19RGlutMed	20RIliopsoas	21RSemiMemb	22RBicFemLong	23RRecFem	24RVastMed	25RVastLat	26RGasMed	27RTibAnt	28RTibPost	29RPeroneusLong	30RSol	31RExtDigLong	32RFlexDigLong
48.15	0.003357	-0.24445	-0.029755	0.002441	0.008087	0.047607	0.032654	0.011292	-0.16388	-0.016174	0.03952	-0.005341	0.076294	-0.058899	-0.087891	0.00885	-0.004578	0.12482	0.50583	0.046692	-0.020752	-0.021362	-0.086365	-0.034485	-0.016174	0.027313	0.078125	-0.015106	0.044861	0.1593	-0.00061	-0.01358
48.151	0.007019	-0.21164	-0.024261	0.003967	0.014954	0.042725	0.006256	0.008087	-0.16449	-0.019684	0.089417	-0.001373	0.075226	-0.048676	0.011749	0.006409	-0.003052	0.052185	0.70633	-0.026245	-0.093079	-0.030975	-0.11047	0.029297	0.003052	0.011597	0.07019	-0.024719	0.72083	0.22919	-0.002899	-0.010986
48.152	0.000305	-0.25971	-0.019836	-0.008545	0.01709	-0.005035	0.009155	0.006561	-0.17502	-0.001068	0.068207	-0.001068	0.034485	-0.037689	0.065002	0.003052	0.00351	0.01236	1.0237	-0.057983	-0.12421	0.000916	-0.043945	-0.046692	0.026245	-0.029297	0.056458	-0.013123	0.94772	0.17487	-0.006561	-0.004578
48.153	-0.000763	-0.2681	0.02533	-0.010681	0.001831	0.03006	0.010986	0.016327	-0.18616	-0.007324	0.070648	-0.004425	0.015564	-0.030518	0.06958	0.015717	0.010986	-0.10925	0.66223	-0.071869	-0.067444	0.016327	0.000916	-0.084686	0.068207	0.000458	0.06134	0.041351	0.13153	-0.04303	-0.004425	-0.001831
48.154	-0.001221	-0.28641	0.024719	-0.007172	0.006866	0.053864	0.017395	0.008545	-0.21042	-0.01358	0.071869	0.005951	-0.012207	-0.023346	0.050507	0.013885	0.005951	-0.12802	0.43716	-0.001678	0.037384	0.044861	-0.01236	0.001068	0.048676	-0.049438	0.099487	0.006409	-0.70404	-0.20996	-0.002747	-0.007782
48.155	0.008545	-0.26276	0.019836	-0.007782	0.014191	0.031586	0.01297	0.012817	-0.21118	-0.02243	0.077209	-0.003662	0.012054	-0.029144	0.013428	0.012054	-0.001831	-0.17807	0.066376	-0.028839	-0.044403	0.059814	0.024109	-0.001068	0.006256	-0.044556	0.019531	-0.012512	-1.2326	-0.13992	-0.00351	-0.007629
48.156	0.004578	-0.27634	-0.015717	0.016479	0.044403	0.033722	0.003662	0.012665	-0.18219	-0.015106	0.041046	-0.002594	0.021973	-0.052948	-0.014954	0.006256	0.011902	-0.1741	-0.4599	0.047455	-0.1828	0.066833	0.055695	-0.12741	-0.037842	-0.032806	-0.005798	-0.011902	-1.0103	-0.1648	0.000305	-0.002289
48.157	0.010376	-0.26642	-0.024261	0.010529	0.05249	0.025787	0.003967	0.006104	-0.17349	-0.029907	0.031586	-0.003052	-0.014648	-0.047913	0.018616	0.008087	0.014954	-0.18204	0.018463	0.009308	-0.095825	0.10849	0.086517	-0.14084	-0.0737	-0.006714	-0.084686	-0.014801	1.2398	-0.07843	-0.009003	-0.009155
48.158	0.01236	-0.28244	0.036316	-0.004578	0.020752	0.03479	0.001678	0.014038	-0.15839	-0.040436	-0.024872	-0.003967	0.018768	0.017395	0.037079	0.01236	-0.003815	-0.22125	0.59448	-0.027313	-0.022278	0.091858	-0.085907	-0.080261	-0.075989	-0.016174	-0.058594	-0.003204	1.5154	-0.002136	-0.00061	-0.019226
48.159	0.005646	-0.29205	-0.016785	-0.001068	0.007629	0.030212	0.017853	0.012054	-0.14633	-0.025024	0.020599	-0.002136	0.003357	0.028992	0.080414	0.007629	0.006256	-0.26825	0.52261	0.030518	0.11353	-0.013123	-0.26581	-0.068207	-0.037689	-0.012817	0.013428	-0.005798	0.01236	-0.1181	-0.002289	-0.014343
48.16	0.024719	-0.26947	-0.042114	0.015717	-0.002441	0.036163	-0.012054	0.010529	-0.13321	-0.006256	0.050049	-0.007629	-0.056152	0.068359	0.090942	0.010071	0.014801	-0.23148	0.61478	-0.049286	0.010681	-0.033417	-0.32135	-0.02182	0.11231	-0.012665	0.011597	-0.018768	0.17822	0.001678	-0.005493	-0.01236
48.161	-0.024719	-0.23834	-0.081787	0.00061	-0.012512	0.036316	-0.010376	0.009308	-0.13718	-0.016479	-0.056458	-0.00824	0.006866	-0.001068	-0.023804	0.018921	0.013275	-0.18967	0.58716	-0.077972	-0.050812	-0.031128	-0.20416	0.04715	0.23636	-0.007782	0.019684	-0.014191	-0.016327	0.16449	-0.00061	-0.011902
48.162	-0.00412	-0.22324	-0.11749	-0.005798	-0.006256	0.033569	-0.024872	0.010529	-0.12619	-0.069427	-0.028076	-0.003357	0.03006	-0.061035	-0.037231	0.024109	0.00412	-0.27252	0.22278	-0.029144	-0.17395	-0.048065	0.001068	-0.030823	0.12116	-0.010376	0.001221	-0.027161	0.11932	0.14481	-0.003357	-0.007629
